# xmcd
# 
# Track frame offsets:
#     150
#     14140
#     44940
#     75322
# 
# Disc length: 1477
# 
# Revision: 0
# Processed by: cddbd v1.5.2PL0 Copyright (c) Steve Scherf et al.
# Submitted via: BonkEnc v1.0
# 
DISCID=2f05c304
DTITLE=Tom Snare - My Homeworld
DYEAR=2007
DGENRE=Techno
TTITLE0=Radio edit
TTITLE1=Extended mix
TTITLE2=Alex Milano remix
TTITLE3=Clubber Land remix
EXTD=
EXTT0=
EXTT1=
EXTT2=
EXTT3=
PLAYORDER=
